<svg xmlns="http://www.w3.org/2000/svg" viewBox="0 0 1963.3 745.05"><defs><style>.cls-1,.cls-3{fill:none;stroke:#000;stroke-miterlimit:10;}.cls-1{stroke-width:3px;}.cls-2{fill:#19153d;}</style></defs><g id="Layer_2" data-name="Layer 2"><g id="Layer_1-2" data-name="Layer 1"><path class="cls-1" d="M720.92,405.45c-4.75,0-8.06,5.15-7.53,9.68s4.81,8.23,9.32,6.62l82-14.06c3.53-1,5.88-4.94,5.64-8.95-.28-4.64-4-8.45-8.2-7.66Z"/><path class="cls-1" d="M722.57,433.9c-4.75,0-8.07,5.15-7.54,9.68s4.82,8.23,9.33,6.62l82-14.06c3.53-1,5.88-4.94,5.63-8.95-.28-4.64-4-8.45-8.2-7.66Z"/><path class="cls-1" d="M720.64,377.38c-4.75,0-8.07,5.15-7.53,9.68s4.81,8.23,9.32,6.62l82-14.06c3.53-1,5.88-4.94,5.64-8.95-.29-4.64-4-8.46-8.2-7.67Z"/><path class="cls-2" d="M305.06,738.05H.5V271.92H305.06c20.88,6.11,35,26.44,34.2,48.59-.79,20.79-14.64,39-34.2,44.7h-208V458.5H235.35c22.18,2.59,39.28,21.26,40.75,43.3,1.62,24.31-16.15,47-40.75,50H96.46v93h208.6c20.15,5.35,34.46,24.27,34.8,45.84C340.21,712.76,325.76,732.55,305.06,738.05Z"/><path class="cls-2" d="M560.18,738.05H404.67c-27,.73-48.4-21.62-47.32-46.2,1-22.16,20-41.32,44.19-42.21H560.18a22.21,22.21,0,0,0,22.11-22.11q0-9.42-6.5-12.35a37.88,37.88,0,0,0-15.61-2.93H467.87a107.06,107.06,0,0,1-43.23-8.77A111.15,111.15,0,0,1,366,544.32a112.86,112.86,0,0,1,0-86.47,109.6,109.6,0,0,1,58.68-58.67,108.83,108.83,0,0,1,43.23-8.61H607.22c22.91,2.49,40.22,21.72,40.4,43.72.2,23.59-19.37,44-44.15,44.69H467.87a22.19,22.19,0,0,0-22.1,22.11,22.18,22.18,0,0,0,6.5,16.09,21,21,0,0,0,15.6,6.66h92.31a120.12,120.12,0,0,1,42.91,7.64,108.55,108.55,0,0,1,35.11,21.29,100.85,100.85,0,0,1,23.73,32.83,99.61,99.61,0,0,1,8.77,41.93,105.92,105.92,0,0,1-8.77,43.07,115.72,115.72,0,0,1-23.73,35.11,109.38,109.38,0,0,1-35.11,23.73A108.09,108.09,0,0,1,560.18,738.05Z"/><path class="cls-2" d="M717.87,462.73l0,242.67a46.58,46.58,0,0,0,89.39-1.67V449.34Z"/><path class="cls-2" d="M1211.27,738.05a40.47,40.47,0,0,1-21.45,0c-18.12-5.17-31.54-24-34.46-47.78a285.28,285.28,0,0,1-26.81,21.29,198.53,198.53,0,0,1-29.75,17.23,183.26,183.26,0,0,1-32,11.54,133.41,133.41,0,0,1-33.31,4.22,175.23,175.23,0,0,1-125.64-52.17,180.07,180.07,0,0,1-38.19-58.18q-14-33.65-14-73.3,0-39.33,14-73.14a181.56,181.56,0,0,1,38.19-58.51,176.32,176.32,0,0,1,56.56-38.68,172.23,172.23,0,0,1,69.08-14,157.18,157.18,0,0,1,24.21,2,125.8,125.8,0,0,1,24.38,6.34,100.79,100.79,0,0,1,22.27,11.54A67.79,67.79,0,0,1,1121.88,414V299.46c-.64-26.4,20-47.64,43.4-48.35,25.41-.77,48.64,22.93,46,51.68ZM1121.88,560.9a92.17,92.17,0,0,0-7-35.27,101.39,101.39,0,0,0-19-30.23,94.51,94.51,0,0,0-28.12-21.13,76.29,76.29,0,0,0-34.29-8,90.77,90.77,0,0,0-34.3,6.5,80.87,80.87,0,0,0-27.95,18.7,87.26,87.26,0,0,0-18.69,29.74q-6.82,17.55-6.83,39.66a99.1,99.1,0,0,0,25.52,66.63A87.17,87.17,0,0,0,999.17,648a80.34,80.34,0,0,0,34.3,7.48,76.16,76.16,0,0,0,34.29-8,94.51,94.51,0,0,0,28.12-21.13,101.39,101.39,0,0,0,19-30.23A92.16,92.16,0,0,0,1121.88,560.9Z"/><path class="cls-2" d="M1417.36,652.89a51.07,51.07,0,0,0,10.4,2.11c3.47.32,6.93.49,10.4.49a87.15,87.15,0,0,0,25-3.58,90,90,0,0,0,22.59-10.24,84.34,84.34,0,0,0,18.86-16.25c2.39-2.77,4.17-5.19,5.33-6.84a85.78,85.78,0,0,0,8.16-14.45c20.65-17.4,51.09-14.42,66.84,4.58,13.93,16.8,13.66,42.87-1.83,60.76a175.43,175.43,0,0,1-17.69,21.36q-5.15,5.29-10.76,10.17a179.58,179.58,0,0,1-34.78,23.73,173.88,173.88,0,0,1-39.33,14.78,178.18,178.18,0,0,1-42.42,5,175.73,175.73,0,0,1-125.63-51.68,178.37,178.37,0,0,1-38.2-58q-14-33.65-14-74,0-41.28,14-75.42t38.2-58.18a172.53,172.53,0,0,1,56.56-37.38,179.38,179.38,0,0,1,69.07-13.33,175.24,175.24,0,0,1,42.58,5.2,178.13,178.13,0,0,1,74.44,38.84,176.43,176.43,0,0,1,28.61,31.7Zm45.51-183a51.92,51.92,0,0,0-12.19-2.93,117.65,117.65,0,0,0-12.52-.65,88.72,88.72,0,0,0-34.29,6.67,81.62,81.62,0,0,0-28,19,89.75,89.75,0,0,0-18.69,29.75q-6.83,17.38-6.82,39.17,0,4.88.48,11.05t1.63,12.51q1.14,6.35,2.76,12.19a45.3,45.3,0,0,0,4.23,10.4Z"/><path class="cls-2" d="M1962.8,738.05a40.47,40.47,0,0,1-21.45,0c-18.12-5.17-31.54-24-34.46-47.78a285.28,285.28,0,0,1-26.81,21.29,199,199,0,0,1-29.75,17.23,183.26,183.26,0,0,1-32,11.54,133.41,133.41,0,0,1-33.31,4.22,192.07,192.07,0,0,1-69.08-12.35,163.88,163.88,0,0,1-56.56-35.92q-24.21-23.56-38.19-57.7t-14-77.68q0-40.64,14-74.61T1659.36,428a172.22,172.22,0,0,1,56.56-37.87A177.69,177.69,0,0,1,1785,376.59a135.4,135.4,0,0,1,33.48,4.22,173.27,173.27,0,0,1,32.18,11.71,199.46,199.46,0,0,1,29.74,17.55,245.87,245.87,0,0,1,26.49,21.78c4.35-20.51,17.37-36.62,34.46-41.28a42.24,42.24,0,0,1,21.45,0ZM1873.41,560.9a92.17,92.17,0,0,0-7-35.27,101.39,101.39,0,0,0-19-30.23,94.51,94.51,0,0,0-28.12-21.13,76.29,76.29,0,0,0-34.29-8,95.06,95.06,0,0,0-34.3,6.18,78.26,78.26,0,0,0-28,18.2,85.48,85.48,0,0,0-18.69,29.75q-6.82,17.72-6.83,40.47t6.83,40.46a85.38,85.38,0,0,0,18.69,29.75,78,78,0,0,0,28,18.2,94.85,94.85,0,0,0,34.3,6.18,76.16,76.16,0,0,0,34.29-8,94.51,94.51,0,0,0,28.12-21.13,101.39,101.39,0,0,0,19-30.23A92.16,92.16,0,0,0,1873.41,560.9Z"/><path class="cls-3" d="M305.06,738.05H.5V271.92H305.06c20.88,6.11,35,26.44,34.2,48.59-.79,20.79-14.64,39-34.2,44.7h-208V458.5H235.35c22.18,2.59,39.28,21.26,40.75,43.3,1.62,24.31-16.15,47-40.75,50H96.46v93h208.6c20.15,5.35,34.46,24.27,34.8,45.84C340.21,712.76,325.76,732.55,305.06,738.05Z"/><path class="cls-3" d="M560.18,738.05H404.67c-27,.73-48.4-21.62-47.32-46.2,1-22.16,20-41.32,44.19-42.21H560.18a22.21,22.21,0,0,0,22.11-22.11q0-9.42-6.5-12.35a37.88,37.88,0,0,0-15.61-2.93H467.87a107.06,107.06,0,0,1-43.23-8.77A111.15,111.15,0,0,1,366,544.32a112.86,112.86,0,0,1,0-86.47,109.6,109.6,0,0,1,58.68-58.67,108.83,108.83,0,0,1,43.23-8.61H607.22c22.91,2.49,40.22,21.72,40.4,43.72.2,23.59-19.37,44-44.15,44.69H467.87a22.19,22.19,0,0,0-22.1,22.11,22.18,22.18,0,0,0,6.5,16.09,21,21,0,0,0,15.6,6.66h92.31a120.12,120.12,0,0,1,42.91,7.64,108.55,108.55,0,0,1,35.11,21.29,100.85,100.85,0,0,1,23.73,32.83,99.61,99.61,0,0,1,8.77,41.93,105.92,105.92,0,0,1-8.77,43.07,115.72,115.72,0,0,1-23.73,35.11,109.38,109.38,0,0,1-35.11,23.73A108.09,108.09,0,0,1,560.18,738.05Z"/><path class="cls-3" d="M717.87,462.73l0,242.67a46.58,46.58,0,0,0,89.39-1.67V449.34Z"/><path class="cls-3" d="M1211.27,738.05a40.47,40.47,0,0,1-21.45,0c-18.12-5.17-31.54-24-34.46-47.78a285.28,285.28,0,0,1-26.81,21.29,198.53,198.53,0,0,1-29.75,17.23,183.26,183.26,0,0,1-32,11.54,133.41,133.41,0,0,1-33.31,4.22,175.23,175.23,0,0,1-125.64-52.17,180.07,180.07,0,0,1-38.19-58.18q-14-33.65-14-73.3,0-39.33,14-73.14a181.56,181.56,0,0,1,38.19-58.51,176.32,176.32,0,0,1,56.56-38.68,172.23,172.23,0,0,1,69.08-14,157.18,157.18,0,0,1,24.21,2,125.8,125.8,0,0,1,24.38,6.34,100.79,100.79,0,0,1,22.27,11.54A67.79,67.79,0,0,1,1121.88,414V299.46c-.64-26.4,20-47.64,43.4-48.35,25.41-.77,48.64,22.93,46,51.68ZM1121.88,560.9a92.17,92.17,0,0,0-7-35.27,101.39,101.39,0,0,0-19-30.23,94.51,94.51,0,0,0-28.12-21.13,76.29,76.29,0,0,0-34.29-8,90.77,90.77,0,0,0-34.3,6.5,80.87,80.87,0,0,0-27.95,18.7,87.26,87.26,0,0,0-18.69,29.74q-6.82,17.55-6.83,39.66a99.1,99.1,0,0,0,25.52,66.63A87.17,87.17,0,0,0,999.17,648a80.34,80.34,0,0,0,34.3,7.48,76.16,76.16,0,0,0,34.29-8,94.51,94.51,0,0,0,28.12-21.13,101.39,101.39,0,0,0,19-30.23A92.16,92.16,0,0,0,1121.88,560.9Z"/><path class="cls-3" d="M1417.36,652.89a51.07,51.07,0,0,0,10.4,2.11c3.47.32,6.93.49,10.4.49a87.15,87.15,0,0,0,25-3.58,90,90,0,0,0,22.59-10.24,84.34,84.34,0,0,0,18.86-16.25c2.39-2.77,4.17-5.19,5.33-6.84a85.78,85.78,0,0,0,8.16-14.45c20.65-17.4,51.09-14.42,66.84,4.58,13.93,16.8,13.66,42.87-1.83,60.76a175.43,175.43,0,0,1-17.69,21.36q-5.15,5.29-10.76,10.17a179.58,179.58,0,0,1-34.78,23.73,173.88,173.88,0,0,1-39.33,14.78,178.18,178.18,0,0,1-42.42,5,175.73,175.73,0,0,1-125.63-51.68,178.37,178.37,0,0,1-38.2-58q-14-33.65-14-74,0-41.28,14-75.42t38.2-58.18a172.53,172.53,0,0,1,56.56-37.38,179.38,179.38,0,0,1,69.07-13.33,175.24,175.24,0,0,1,42.58,5.2,178.13,178.13,0,0,1,74.44,38.84,176.43,176.43,0,0,1,28.61,31.7Zm45.51-183a51.92,51.92,0,0,0-12.19-2.93,117.65,117.65,0,0,0-12.52-.65,88.72,88.72,0,0,0-34.29,6.67,81.62,81.62,0,0,0-28,19,89.75,89.75,0,0,0-18.69,29.75q-6.83,17.38-6.82,39.17,0,4.88.48,11.05t1.63,12.51q1.14,6.35,2.76,12.19a45.3,45.3,0,0,0,4.23,10.4Z"/><path class="cls-3" d="M1962.8,738.05a40.47,40.47,0,0,1-21.45,0c-18.12-5.17-31.54-24-34.46-47.78a285.28,285.28,0,0,1-26.81,21.29,199,199,0,0,1-29.75,17.23,183.26,183.26,0,0,1-32,11.54,133.41,133.41,0,0,1-33.31,4.22,192.07,192.07,0,0,1-69.08-12.35,163.88,163.88,0,0,1-56.56-35.92q-24.21-23.56-38.19-57.7t-14-77.68q0-40.64,14-74.61T1659.36,428a172.22,172.22,0,0,1,56.56-37.87A177.69,177.69,0,0,1,1785,376.59a135.4,135.4,0,0,1,33.48,4.22,173.27,173.27,0,0,1,32.18,11.71,199.46,199.46,0,0,1,29.74,17.55,245.87,245.87,0,0,1,26.49,21.78c4.35-20.51,17.37-36.62,34.46-41.28a42.24,42.24,0,0,1,21.45,0ZM1873.41,560.9a92.17,92.17,0,0,0-7-35.27,101.39,101.39,0,0,0-19-30.23,94.51,94.51,0,0,0-28.12-21.13,76.29,76.29,0,0,0-34.29-8,95.06,95.06,0,0,0-34.3,6.18,78.26,78.26,0,0,0-28,18.2,85.48,85.48,0,0,0-18.69,29.75q-6.82,17.72-6.83,40.47t6.83,40.46a85.38,85.38,0,0,0,18.69,29.75,78,78,0,0,0,28,18.2,94.85,94.85,0,0,0,34.3,6.18,76.16,76.16,0,0,0,34.29-8,94.51,94.51,0,0,0,28.12-21.13,101.39,101.39,0,0,0,19-30.23A92.16,92.16,0,0,0,1873.41,560.9Z"/><path class="cls-2" d="M972,209.43C972,93.76,878.2,0,762.53,0S553.1,93.76,553.1,209.43a208.65,208.65,0,0,0,57.14,143.68h93.17c-1.1-25.76-8.29-43-14.5-53.81-.17-.29-.34-.55-.51-.84-13.21-20.65-27.06-28.87-35.22-53.18l-.06-.18a122.79,122.79,0,0,1-4.9-33.22,114.31,114.31,0,0,1,228.62,0,122.79,122.79,0,0,1-4.9,33.22l-.06.18c-8.15,24.31-22,32.53-35.22,53.18-.17.29-.34.55-.5.84-6.22,10.82-13.41,28.05-14.51,53.81h93.17A208.65,208.65,0,0,0,972,209.43Z"/><path class="cls-2" d="M721.05,132c-1.06-2.93-6.29-5-11.28-2.28-6.16,3.69-29.65,18.76-39.79,49.76-10.89,33.27,1.4,61.1,4.22,67.11,1.44,4.8,6.38,6.69,9.29,5.21,2.36-1.21,3.75-4.8,2.56-8.39-2.41-4.79-14.62-30.18-4.51-60.37,8.93-26.71,29.45-39.59,34.83-42.75C720.2,138.29,721.93,134.46,721.05,132Z"/></g></g></svg>