<svg xmlns="http://www.w3.org/2000/svg" viewBox="0 0 64 64" id="brain"><path fill="#ff6663" d="M32 14.41c-.35-2.94-4.32-3.76-5.24-4.17-.53-.24-1.02-.37-1.43-.37-.32 0-.79.06-1.29.59-.71.75-1.12 2.06-1.04 3.33l-5.12 2.31c-.01 0-.02-.01-.04-.01-.28-.08-.57-.12-.86-.12-1.46 0-2.75.99-3.13 2.39-.13.49-.15.99-.04 1.5l-3.82 4.18c-.36.28-.65.63-.87 1.04-.4.77-.48 1.65-.23 2.48.11.37.29.71.52 1.01l.07.09c1.06 1.37.68 3.36-.81 4.25-.82.49-1.45 1.28-1.63 2.21a3.25 3.25 0 0 0 3.18 3.89c.14 0 .27-.02.41-.03l2.72 4.83c-.53.68-.76 1.51-.66 2.39.15 1.31 1.15 2.44 2.43 2.76.94.23 1.88.04 2.65-.49l4.71 2.38c.07 2.57 1.82 2.95 2.85 2.95 1.27 0 3.46-.72 3.65-3.42l3.02-.11V14.41z"></path><g fill="#542c2c"><path d="M61.23 33.6c-.45-1.14-1.46-1.14-1.93-.99-.25.08-.59.29-.81.64-.2.32-.3.75-.15 1.31.03.1.07.21.13.31.28.53.66.78 1.03.87a1.595 1.595 0 0 0 .99-.09c.45-.21 1.18-.9.74-2.05zm-1.25 3.74c.74.39 1.02 1.3.63 2.03a7.67 7.67 0 0 1-5.22 3.95c.22.66.37 1.35.41 2.06.01.14.01.28.01.43 0 .82-.67 1.5-1.5 1.5-.31 0-.6-.1-.84-.26-.4-.27-.66-.73-.66-1.24v-.26c-.05-.8-.3-1.56-.72-2.24-2.34-.52-4.37-2.09-5.39-4.34a1.494 1.494 0 0 1 .74-1.98c.76-.35 1.65-.01 1.99.74a4.771 4.771 0 0 0 4.32 2.79c1.77 0 3.38-.98 4.21-2.55a1.501 1.501 0 0 1 2.02-.63zm-5.23-17.98c3.79 1.45 5.87 5.61 4.65 9.54-.28.87-.7 1.69-1.26 2.42-.29.38-.74.58-1.19.58-.32 0-.64-.1-.91-.31-.66-.5-.78-1.44-.28-2.1.35-.45.61-.95.77-1.48.7-2.26-.38-4.64-2.44-5.66-.11.24-.23.48-.36.71-1.02 1.8-2.69 3.08-4.69 3.63a1.506 1.506 0 0 1-1.84-1.05c-.22-.8.26-1.63 1.05-1.85a4.698 4.698 0 0 0 2.88-2.22 4.749 4.749 0 0 0-1.77-6.48 4.72 4.72 0 0 0-3.6-.46c-.06.02-.11.05-.16.06-.13.79-.36 1.55-.7 2.27-.61 1.28-1.52 2.28-2.65 2.97-1.14.68-2.49 1.05-4 1.05-.83 0-1.5-.67-1.5-1.5 0-.82.67-1.5 1.5-1.5 2.34 0 3.44-1.26 3.94-2.31.87-1.83.6-4.35-.62-5.86-.98-1.21-2.4-1.62-4.15-1.21-2.27.54-3.48 2.19-3.91 5.51.15 1.31.16 2.57.17 3.62.02 2.54-.01 5.08-.05 7.61.06.12.13.24.23.34.51.5 1.47.76 2.24.88.7-1.1 2.12-2.71 4.51-2.95a1.502 1.502 0 0 1 .3 2.99c-1.77.17-2.55 2.05-2.55 2.07-.23.57-.78.95-1.39.95h-.03c-.31 0-1.85-.03-3.35-.64-.03 2-.07 3.99-.08 5.99-.01.31-.01.63-.01.94 0 .82-.67 1.49-1.5 1.49s-1.5-.68-1.5-1.51c0-.28.01-.56.01-.85 0-.04-.01-.08-.01-.12 0-1.99-.03-3.97-.06-5.95-1.51.62-3.07.65-3.38.65h-.03c-.61 0-1.16-.38-1.39-.95-.02-.07-.79-1.9-2.55-2.07a1.502 1.502 0 0 1 .3-2.99c2.39.24 3.81 1.85 4.51 2.94.35-.05.78-.13 1.19-.28.82-.28 1.15-.63 1.3-.94-.05-2.79-.08-5.63-.05-8.44.01-.75.02-1.75.14-2.86-.31-2.33-1.1-4.26-3.1-5.16-1.74-.79-3.19-.65-4.3.42-1.5 1.45-2.04 4.29-1.19 6.34.44 1.08 1.45 2.35 3.77 2.35h.09a1.5 1.5 0 0 1 .02 3h-.11c-3.06 0-5.45-1.53-6.55-4.21-.26-.64-.42-1.32-.51-2.01-.12-.04-.24-.09-.36-.13-1.22-.33-2.5-.17-3.6.46a4.749 4.749 0 0 0-1.77 6.48c.63 1.1 1.65 1.89 2.88 2.22.79.22 1.27 1.05 1.05 1.85a1.506 1.506 0 0 1-1.84 1.05c-2-.55-3.67-1.83-4.69-3.63-.13-.23-.25-.47-.36-.71-2.06 1.01-3.15 3.4-2.44 5.65.16.54.42 1.04.77 1.49a1.506 1.506 0 0 1-.42 2.2 4.72 4.72 0 0 0-2.32 4.08c0 .83-.67 1.5-1.5 1.5s-1.5-.67-1.5-1.5c0-2.2.95-4.29 2.55-5.75a7.39 7.39 0 0 1-.45-1.13c-1.22-3.92.86-8.09 4.65-9.53-.02-.73.07-1.46.27-2.18.54-2 1.83-3.66 3.63-4.69a7.64 7.64 0 0 1 5.51-.83C19 9.92 19.8 8.29 21 7.13c1.99-1.92 4.77-2.29 7.62-1 1.54.7 2.61 1.75 3.35 2.96.94-1.56 2.42-2.85 4.76-3.41 2.86-.68 5.47.14 7.17 2.24.85 1.05 1.39 2.34 1.64 3.69 1.82-.35 3.68-.05 5.31.88a7.671 7.671 0 0 1 3.63 4.69c.2.72.29 1.46.27 2.18zm4.51-6.11c.23 1.13-.54 1.74-1.11 1.87-.11.03-.21.04-.31.04-.69 0-1.34-.53-1.51-1.22-.01-.04-.02-.09-.03-.14-.18-1.13.62-1.7 1.2-1.81.8-.15 1.59.47 1.76 1.26zm-1.57-4.16a1.494 1.494 0 0 1-1.26 2.3c-.5 0-.98-.24-1.27-.69-2.2-3.45-6.67-3.8-6.72-3.8a1.5 1.5 0 0 1-1.39-1.6c.05-.82.74-1.45 1.58-1.4.25.02 6.03.43 9.06 5.19zm-3.7 39.2c.67.49.81 1.43.32 2.1-.26.36-.55.69-.87 1-.29.28-.67.41-1.04.41a1.476 1.476 0 0 1-1.26-.69c-.38-.59-.31-1.38.22-1.89.19-.18.38-.39.54-.61a1.492 1.492 0 0 1 2.09-.32z"></path><path d="M49.31 51.22c.16.23.26.52.26.83 0 .83-.68 1.5-1.5 1.5-.85 0-1.66-.14-2.42-.39-1 3.43-4.03 5.08-6.84 5.14h-.17c-2.45 0-5.05-1.15-6.64-3.36-1.6 2.21-4.2 3.36-6.65 3.36h-.16c-2.81-.06-5.84-1.71-6.84-5.14-.76.25-1.57.39-2.42.39a7.746 7.746 0 0 1-7.34-10.21 7.811 7.811 0 0 1-4.26-2.56c-.53-.64-.45-1.58.18-2.12.07-.06.14-.11.22-.16.62-.35 1.42-.23 1.89.34a4.786 4.786 0 0 0 3.63 1.68c1.85 0 3.55-1.1 4.32-2.79.34-.75 1.23-1.09 1.99-.74.41.19.7.54.81.94.1.34.08.7-.07 1.04a7.75 7.75 0 0 1-5.39 4.34c-.47.75-.72 1.6-.72 2.5a4.75 4.75 0 0 0 4.74 4.74c2.62 0 4.75-2.13 4.75-4.74 0-.83.67-1.5 1.5-1.5s1.5.67 1.5 1.5c0 2.29-1.01 4.35-2.59 5.77.37 2.65 2.33 3.68 4.16 3.72h.11c2.39 0 4.89-1.62 5.13-4.77-.14-2.14-.09-4.32-.04-6.42.03-1.07.05-2.13.05-3.18v-.31c0-.83.67-1.5 1.5-1.5s1.5.67 1.5 1.5c0 1.08.03 2.17.05 3.27.05 2.18.1 4.44-.05 6.66.25 3.13 2.74 4.75 5.13 4.75h.11c1.84-.04 3.8-1.07 4.17-3.72a7.752 7.752 0 0 1-2.59-5.77c0-.83.67-1.5 1.5-1.5s1.5.67 1.5 1.5c0 2.61 2.13 4.74 4.75 4.74.51 0 .97.27 1.24.67zm-6.76-15.19a1.512 1.512 0 0 1 1.39 1.86 1.51 1.51 0 0 1-1.46 1.14h-.06c-.47-.02-4.61-.29-6.09-3.39a1.49 1.49 0 0 1 .7-2c.75-.36 1.64-.05 2 .7.61 1.27 2.75 1.65 3.52 1.69z"></path><path d="M27.82 34.99c0 .22-.05.44-.15.65-1.48 3.1-5.62 3.37-6.09 3.39h-.06a1.508 1.508 0 0 1-1.5-1.44c-.04-.82.6-1.52 1.43-1.56.77-.04 2.91-.42 3.52-1.69.36-.75 1.25-1.06 2-.7.54.26.85.79.85 1.35zM10.7 54.85c.78.29 1.18 1.16.88 1.93-.22.61-.79.98-1.4.98-.18 0-.35-.03-.52-.09-4.62-1.73-6.34-6.41-6.41-6.61-.28-.78.13-1.63.91-1.91s1.63.12 1.91.9c.01.03 1.34 3.58 4.63 4.8z"></path></g></svg>