<svg xmlns="http://www.w3.org/2000/svg" viewBox="0 0 64 64" id="discussion"><g data-name="Layer 2"><path fill="#1b1c21" d="M46.998 51.005a1 1 0 0 1-.799-1.6 5.986 5.986 0 0 1 1.813-1.607 1 1 0 1 1 .998 1.733 4.02 4.02 0 0 0-1.211 1.073.996.996 0 0 1-.801.4Zm.021 1.594c.007-.07.017-.14.028-.21a1 1 0 0 0-1.977-.307q-.025.158-.041.32a1 1 0 0 0 .896 1.093c.035.003.067.005.1.005a1 1 0 0 0 .995-.901ZM28.8 50.605a4.02 4.02 0 0 1 1.21-1.074 1 1 0 1 0-.997-1.732 5.986 5.986 0 0 0-1.813 1.606 1 1 0 1 0 1.6 1.2Zm-.779 1.994c.007-.07.017-.14.027-.21a1 1 0 0 0-1.977-.307q-.025.158-.041.32a1 1 0 0 0 .896 1.093c.035.003.067.005.1.005a1 1 0 0 0 .995-.901ZM9.799 50.605a4.02 4.02 0 0 1 1.21-1.074 1 1 0 1 0-.997-1.732 5.986 5.986 0 0 0-1.813 1.606 1 1 0 1 0 1.6 1.2Zm-.779 1.994c.007-.07.017-.14.027-.21a1 1 0 0 0-1.977-.307q-.025.158-.041.32a1 1 0 0 0 .896 1.093c.035.003.067.005.1.005a1 1 0 0 0 .995-.901Z"></path><path fill="#ffba17" d="M55 10H9a4 4 0 0 0-4 4v9a4 4 0 0 0 4 4h2l2 4 2-4h15l2 4 2-4h15l2 4 2-4h2a4 4 0 0 0 4-4v-9a4 4 0 0 0-4-4ZM21.5 21a2.5 2.5 0 1 1 2.5-2.5 2.5 2.5 0 0 1-2.5 2.5Zm10 0a2.5 2.5 0 1 1 2.5-2.5 2.5 2.5 0 0 1-2.5 2.5Zm10 0a2.5 2.5 0 1 1 2.5-2.5 2.5 2.5 0 0 1-2.5 2.5Z"></path><path fill="#1b1c21" d="M55.187 45.04A2.981 2.981 0 0 0 56 43v-5a3.003 3.003 0 0 0-3-3h-4a3.003 3.003 0 0 0-3 3v5a2.981 2.981 0 0 0 .813 2.04A9.005 9.005 0 0 0 42 53v5a3.003 3.003 0 0 0 3 3h12a3.003 3.003 0 0 0 3-3v-5a9.005 9.005 0 0 0-4.813-7.96ZM49 44a1 1 0 0 1-1-1v-5a1 1 0 0 1 1-1h4a1 1 0 0 1 1 1v5a1 1 0 0 1-1 1Zm9 14a1 1 0 0 1-1 1H45a1 1 0 0 1-1-1v-5a7 7 0 0 1 14 0ZM36.187 45.04A2.981 2.981 0 0 0 37 43v-5a3.003 3.003 0 0 0-3-3h-4a3.003 3.003 0 0 0-3 3v5a2.981 2.981 0 0 0 .813 2.04A9.005 9.005 0 0 0 23 53v5a3.003 3.003 0 0 0 3 3h12a3.003 3.003 0 0 0 3-3v-5a9.005 9.005 0 0 0-4.813-7.96ZM30 44a1 1 0 0 1-1-1v-5a1 1 0 0 1 1-1h4a1 1 0 0 1 1 1v5a1 1 0 0 1-1 1Zm9 14a1 1 0 0 1-1 1H26a1 1 0 0 1-1-1v-5a7 7 0 0 1 14 0ZM17.187 45.04A2.981 2.981 0 0 0 18 43v-5a3.003 3.003 0 0 0-3-3h-4a3.003 3.003 0 0 0-3 3v5a2.981 2.981 0 0 0 .813 2.04A9.005 9.005 0 0 0 4 53v5a3.003 3.003 0 0 0 3 3h12a3.003 3.003 0 0 0 3-3v-5a9.005 9.005 0 0 0-4.813-7.96ZM11 44a1 1 0 0 1-1-1v-5a1 1 0 0 1 1-1h4a1 1 0 0 1 1 1v5a1 1 0 0 1-1 1Zm9 14a1 1 0 0 1-1 1H7a1 1 0 0 1-1-1v-5a7 7 0 0 1 14 0Zm1.5-43a3.5 3.5 0 1 0 3.5 3.5 3.504 3.504 0 0 0-3.5-3.5Zm0 5a1.5 1.5 0 1 1 1.5-1.5 1.502 1.502 0 0 1-1.5 1.5Zm10-5a3.5 3.5 0 1 0 3.5 3.5 3.504 3.504 0 0 0-3.5-3.5Zm0 5a1.5 1.5 0 1 1 1.5-1.5 1.502 1.502 0 0 1-1.5 1.5Zm10-5a3.5 3.5 0 1 0 3.5 3.5 3.504 3.504 0 0 0-3.5-3.5Zm0 5a1.5 1.5 0 1 1 1.5-1.5 1.502 1.502 0 0 1-1.5 1.5ZM55 9H9a5.006 5.006 0 0 0-5 5v9a5.006 5.006 0 0 0 5 5h1.382l1.724 3.447a1.041 1.041 0 0 0 1.788 0L15.618 28h13.764l1.723 3.447a1.041 1.041 0 0 0 1.79 0L34.617 28h13.764l1.724 3.447a1 1 0 0 0 1.788 0L53.618 28H55a5.006 5.006 0 0 0 5-5v-9a5.006 5.006 0 0 0-5-5Zm3 14a3.003 3.003 0 0 1-3 3h-2a1 1 0 0 0-.894.553L51 28.763l-1.105-2.21A1 1 0 0 0 49 26H34a1 1 0 0 0-.894.553L32 28.763l-1.105-2.21A1 1 0 0 0 30 26H15a1 1 0 0 0-.894.553L13 28.763l-1.105-2.21A1 1 0 0 0 11 26H9a3.003 3.003 0 0 1-3-3v-9a3.003 3.003 0 0 1 3-3h46a3.003 3.003 0 0 1 3 3Z"></path><path fill="#1b1c21" d="M6 43a5.003 5.003 0 0 1-2.397-.611 1 1 0 0 1 .96-1.754A2.997 2.997 0 0 0 6 41a1 1 0 0 1 0 2Zm54.828-1.17a1 1 0 0 1-.708-1.706 3.022 3.022 0 0 0 .76-1.277 1 1 0 0 1 1.918.564 5.022 5.022 0 0 1-1.262 2.125.996.996 0 0 1-.708.294ZM2.01 39.285a1 1 0 0 1-.996-.928A5.09 5.09 0 0 1 1 38.01v-1.725a1 1 0 0 1 2 0V38c.001.065.003.14.008.213a.999.999 0 0 1-.925 1.07l-.073.002ZM62 36.144a1 1 0 0 1-1-1v-2a1 1 0 1 1 2 0v2a1 1 0 0 1-1 1ZM2 33.285a1 1 0 0 1-1-1v-2a1 1 0 0 1 2 0v2a1 1 0 0 1-1 1Zm60-3.141a1 1 0 0 1-1-1v-2a1 1 0 1 1 2 0v2a1 1 0 0 1-1 1ZM2 27.285a1 1 0 0 1-1-1v-2a1 1 0 0 1 2 0v2a1 1 0 0 1-1 1Zm60-3.141a1 1 0 0 1-1-1v-2a1 1 0 1 1 2 0v2a1 1 0 0 1-1 1ZM2 21.285a1 1 0 0 1-1-1v-2a1 1 0 0 1 2 0v2a1 1 0 0 1-1 1Zm60-3.141a1 1 0 0 1-1-1v-2a1 1 0 1 1 2 0v2a1 1 0 0 1-1 1ZM2 15.285a1 1 0 0 1-1-1v-2a1 1 0 0 1 2 0v2a1 1 0 0 1-1 1Zm60-3.141a1 1 0 0 1-1-1v-2a1 1 0 1 1 2 0v2a1 1 0 0 1-1 1ZM2 9.285a1 1 0 0 1-1-1V8a4.959 4.959 0 0 1 .452-2.08 1 1 0 0 1 1.819.835A2.958 2.958 0 0 0 3 8v.285a1 1 0 0 1-1 1Zm59.023-2.904a.998.998 0 0 1-.754-.344 3.032 3.032 0 0 0-1.22-.85 1 1 0 1 1 .699-1.873 5.031 5.031 0 0 1 2.03 1.41 1 1 0 0 1-.755 1.656ZM5.43 5.04a1 1 0 0 1-.14-1.99A5.143 5.143 0 0 1 6 3h1.43a1 1 0 0 1 0 2H6a2.945 2.945 0 0 0-.429.03 1.001 1.001 0 0 1-.141.01Zm50-.04h-2a1 1 0 0 1 0-2h2a1 1 0 0 1 0 2Zm-6 0h-2a1 1 0 0 1 0-2h2a1 1 0 0 1 0 2Zm-6 0h-2a1 1 0 0 1 0-2h2a1 1 0 0 1 0 2Zm-6 0h-2a1 1 0 0 1 0-2h2a1 1 0 0 1 0 2Zm-6 0h-2a1 1 0 1 1 0-2h2a1 1 0 0 1 0 2Zm-6 0h-2a1 1 0 0 1 0-2h2a1 1 0 0 1 0 2Zm-6 0h-2a1 1 0 0 1 0-2h2a1 1 0 0 1 0 2Zm-6 0h-2a1 1 0 0 1 0-2h2a1 1 0 0 1 0 2Z"></path></g></svg>