<svg width="541" height="571" viewBox="0 0 541 571" fill="none" xmlns="http://www.w3.org/2000/svg">
<g clip-path="url(#clip0_1263_2354)">
<path d="M252.187 610.621H-62.3372C-64.8038 610.621 -67.1694 609.642 -68.9136 607.898C-70.6578 606.155 -71.6377 603.79 -71.6377 601.325V-15.2065C-71.6162 -17.6579 -70.6269 -20.0017 -68.885 -21.7275C-67.1431 -23.4534 -64.7898 -24.4217 -62.3372 -24.4216H252.187C253.409 -24.4216 254.618 -24.1811 255.747 -23.7139C256.875 -23.2467 257.9 -22.562 258.764 -21.6987C259.628 -20.8354 260.313 -19.8106 260.78 -18.6827C261.247 -17.5548 261.488 -16.3459 261.488 -15.1251V601.325C261.488 602.546 261.247 603.754 260.78 604.882C260.313 606.01 259.628 607.035 258.764 607.898C257.9 608.762 256.875 609.446 255.747 609.914C254.618 610.381 253.409 610.621 252.187 610.621ZM-62.3372 -24.0959C-64.6945 -24.0916 -66.954 -23.1537 -68.6209 -21.4875C-70.2878 -19.8214 -71.2262 -17.5628 -71.2305 -15.2065V601.325C-71.2262 603.681 -70.2878 605.94 -68.6209 607.606C-66.954 609.272 -64.6945 610.21 -62.3372 610.214H252.187C254.545 610.21 256.804 609.272 258.471 607.606C260.138 605.94 261.077 603.681 261.081 601.325V-15.2065C261.077 -17.5628 260.138 -19.8214 258.471 -21.4875C256.804 -23.1537 254.545 -24.0916 252.187 -24.0959H-62.3372Z" fill="#EBEBEB"/>
<path d="M604.501 610.621H289.976C287.51 610.621 285.144 609.642 283.4 607.898C281.656 606.155 280.676 603.79 280.676 601.325V-15.2065C280.697 -17.6579 281.687 -20.0017 283.428 -21.7275C285.17 -23.4534 287.524 -24.4217 289.976 -24.4216H604.501C606.968 -24.4216 609.333 -23.4421 611.077 -21.6987C612.822 -19.9553 613.801 -17.5907 613.801 -15.1251V601.325C613.801 602.546 613.561 603.754 613.094 604.882C612.626 606.01 611.941 607.035 611.077 607.898C610.214 608.762 609.189 609.446 608.06 609.914C606.932 610.381 605.722 610.621 604.501 610.621ZM289.976 -24.0959C287.619 -24.0916 285.359 -23.1537 283.693 -21.4875C282.026 -19.8214 281.087 -17.5628 281.083 -15.2065V601.325C281.087 603.681 282.026 605.94 283.693 607.606C285.359 609.272 287.619 610.21 289.976 610.214H604.501C606.858 610.21 609.118 609.272 610.785 607.606C612.452 605.94 613.39 603.681 613.394 601.325V-15.2065C613.39 -17.5628 612.452 -19.8214 610.785 -21.4875C609.118 -23.1537 606.858 -24.0916 604.501 -24.0959H289.976Z" fill="#EBEBEB"/>
<path d="M48.0158 159.961L50.6545 165.285L56.5508 166.148L52.2833 170.3L53.2932 176.161L48.0158 173.393L42.7547 176.161L43.7646 170.3L39.4971 166.148L45.3934 165.285L48.0158 159.961Z" fill="#EBEBEB"/>
<path d="M470.775 565.881L473.413 571.205L479.293 572.068L475.026 576.219L476.036 582.08L470.775 579.313L465.513 582.08L466.507 576.219L462.256 572.068L468.136 571.205L470.775 565.881Z" fill="#F5F5F5"/>
<path d="M231.892 65.3685L232.87 67.3548L235.069 67.6804C235.191 67.6965 235.307 67.7471 235.402 67.8264C235.497 67.9057 235.567 68.0105 235.605 68.1283C235.642 68.2462 235.646 68.3723 235.614 68.4919C235.583 68.6115 235.518 68.7197 235.427 68.8038L233.798 70.3505L234.173 72.5322C234.192 72.6536 234.177 72.778 234.13 72.8916C234.083 73.0052 234.006 73.1036 233.906 73.176C233.807 73.2484 233.69 73.292 233.567 73.3019C233.444 73.3119 233.321 73.2877 233.212 73.2323L231.257 72.1903L229.303 73.2323C229.193 73.2877 229.07 73.3119 228.947 73.3019C228.825 73.292 228.707 73.2484 228.608 73.176C228.508 73.1036 228.431 73.0052 228.384 72.8916C228.337 72.778 228.322 72.6536 228.342 72.5322L228.7 70.3505L227.071 68.8038C226.98 68.7187 226.915 68.6092 226.884 68.4883C226.854 68.3674 226.858 68.2403 226.898 68.1219C226.937 68.0036 227.01 67.8991 227.107 67.8208C227.204 67.7426 227.322 67.6938 227.446 67.6804L229.628 67.3548L230.606 65.3685C230.645 65.228 230.729 65.1041 230.845 65.0159C230.961 64.9277 231.103 64.8799 231.249 64.8799C231.395 64.8799 231.537 64.9277 231.653 65.0159C231.769 65.1041 231.853 65.228 231.892 65.3685Z" fill="#EBEBEB"/>
<path d="M6.80658 44.4473L7.78386 46.4336L9.98277 46.743C10.1053 46.7625 10.22 46.8158 10.314 46.8969C10.4079 46.978 10.4774 47.0837 10.5146 47.202C10.5518 47.3204 10.5553 47.4468 10.5247 47.567C10.494 47.6872 10.4305 47.7965 10.3411 47.8826L8.71229 49.5108L9.08692 51.6761C9.11295 51.799 9.10285 51.9269 9.05784 52.0442C9.01284 52.1615 8.93483 52.2633 8.83325 52.3373C8.73167 52.4113 8.61084 52.4543 8.48534 52.4612C8.35983 52.4681 8.23501 52.4386 8.12591 52.3762L6.17134 51.3505L4.21676 52.3762C4.10767 52.4386 3.98283 52.4681 3.85733 52.4612C3.73182 52.4543 3.611 52.4113 3.50943 52.3373C3.40785 52.2633 3.32984 52.1615 3.28483 52.0442C3.23983 51.9269 3.22973 51.799 3.25576 51.6761L3.6141 49.5108L1.98528 47.8826C1.89564 47.7955 1.83229 47.6848 1.80247 47.5634C1.77264 47.442 1.77753 47.3147 1.81657 47.1959C1.85562 47.0771 1.92725 46.9717 2.02331 46.8916C2.11937 46.8115 2.23599 46.76 2.3599 46.743L4.54252 46.4336L5.58496 44.4473C5.63728 44.329 5.72286 44.2285 5.8313 44.1579C5.93974 44.0873 6.06636 44.0497 6.19577 44.0497C6.32518 44.0497 6.4518 44.0873 6.56024 44.1579C6.66868 44.2285 6.75426 44.329 6.80658 44.4473Z" fill="#EBEBEB"/>
<path d="M4.16657 436.853C4.1698 437.282 4.04549 437.703 3.80942 438.061C3.57335 438.419 3.23616 438.699 2.84061 438.866C2.44506 439.032 2.00899 439.077 1.58769 438.995C1.1664 438.914 0.778878 438.709 0.47428 438.407C0.169682 438.104 -0.0382634 437.719 -0.12318 437.298C-0.208097 436.878 -0.166164 436.441 -0.00268912 436.045C0.160785 435.648 0.438435 435.309 0.79503 435.07C1.15163 434.832 1.5711 434.704 2.00025 434.704C2.57199 434.704 3.12054 434.93 3.52634 435.333C3.93214 435.735 4.16227 436.282 4.16657 436.853Z" fill="#EBEBEB"/>
<path d="M312.893 165.888C312.896 166.317 312.772 166.737 312.536 167.095C312.3 167.453 311.963 167.733 311.567 167.9C311.172 168.066 310.736 168.111 310.314 168.03C309.893 167.948 309.505 167.743 309.201 167.441C308.896 167.139 308.688 166.753 308.603 166.332C308.518 165.912 308.56 165.476 308.724 165.079C308.887 164.683 309.165 164.343 309.522 164.105C309.878 163.866 310.298 163.739 310.727 163.739C311.011 163.736 311.292 163.79 311.555 163.898C311.817 164.005 312.056 164.163 312.258 164.362C312.459 164.562 312.619 164.8 312.728 165.062C312.837 165.323 312.893 165.604 312.893 165.888Z" fill="#EBEBEB"/>
<path d="M200.57 46.2383C200.57 46.6665 200.443 47.0852 200.205 47.4413C199.967 47.7974 199.628 48.0749 199.233 48.2388C198.837 48.4027 198.401 48.4456 197.981 48.362C197.561 48.2785 197.175 48.0722 196.872 47.7694C196.569 47.4666 196.363 47.0807 196.279 46.6607C196.195 46.2407 196.238 45.8053 196.402 45.4096C196.566 45.0139 196.844 44.6757 197.2 44.4378C197.556 44.1999 197.975 44.0729 198.404 44.0729C198.977 44.0771 199.525 44.3066 199.931 44.7118C200.336 45.117 200.566 45.6653 200.57 46.2383Z" fill="#F5F5F5"/>
<path d="M204.001 573.978C210.436 572.46 214.422 566.015 212.903 559.583C211.384 553.151 204.936 549.167 198.501 550.685C192.066 552.203 188.081 558.649 189.6 565.081C191.118 571.513 197.566 575.497 204.001 573.978Z" fill="#F0F0F0"/>
<path d="M197.133 555.331C194.681 555.326 192.291 556.101 190.309 557.545C189.296 559.866 189.048 562.449 189.599 564.92C190.15 567.391 191.472 569.624 193.375 571.296C195.277 572.968 197.662 573.992 200.185 574.221C202.707 574.451 205.238 573.873 207.411 572.572C208.373 570.794 208.856 568.796 208.814 566.775C208.771 564.753 208.204 562.778 207.168 561.041C206.132 559.305 204.662 557.867 202.903 556.869C201.144 555.871 199.156 555.346 197.133 555.347V555.331Z" fill="#E6E6E6"/>
<path d="M104.42 354.341H5.30664V309.617L104.42 191.84H151.851V312.157H176.43V354.341H151.851V390.941H104.42V354.341ZM104.42 312.157V250.549L52.0374 312.157H104.42Z" fill="#59AEF8"/>
<path d="M193.386 292.261C193.386 255.043 200.086 228.993 213.486 214.112C226.885 199.231 247.305 191.796 274.745 191.807C287.917 191.807 298.738 193.435 307.208 196.691C314.902 199.463 321.947 203.779 327.91 209.374C332.936 214.171 337.193 219.711 340.533 225.802C343.838 232.161 346.328 238.911 347.944 245.893C351.627 260.808 353.465 276.118 353.417 291.48C353.417 326.994 347.407 352.984 335.386 369.45C323.366 385.915 302.663 394.154 273.279 394.164C256.796 394.164 243.477 391.538 233.325 386.284C223.09 380.946 214.469 372.969 208.355 363.182C203.631 355.975 199.955 346.114 197.328 333.599C194.6 319.991 193.279 306.139 193.386 292.261ZM247.365 292.392C247.365 317.356 249.564 334.38 253.962 343.465C258.359 352.55 264.75 357.114 273.133 357.158C275.793 357.187 278.433 356.689 280.899 355.691C283.365 354.693 285.608 353.216 287.499 351.345C291.56 347.47 294.546 341.349 296.457 332.98C298.369 324.612 299.324 311.587 299.324 293.906C299.324 267.921 297.12 250.452 292.711 241.497C288.303 232.542 281.69 228.07 272.872 228.081C263.881 228.081 257.366 232.645 253.326 241.774C249.287 250.902 247.3 267.775 247.365 292.392Z" fill="#59AEF8"/>
<path d="M469.372 354.341H370.259V309.617L469.372 191.84H516.803V312.157H541.464V354.341H516.803V390.941H469.372V354.341ZM469.372 312.157V250.549L417.006 312.157H469.372Z" fill="#59AEF8"/>
<g opacity="0.3">
<path d="M191.269 123.117C191.269 123.72 191.089 124.31 190.754 124.811C190.419 125.312 189.942 125.702 189.384 125.932C188.827 126.162 188.214 126.221 187.622 126.102C187.031 125.983 186.488 125.692 186.063 125.264C185.638 124.837 185.349 124.293 185.233 123.701C185.118 123.11 185.18 122.497 185.413 121.941C185.646 121.385 186.039 120.911 186.542 120.578C187.045 120.245 187.636 120.07 188.239 120.073C188.638 120.073 189.033 120.152 189.402 120.305C189.771 120.458 190.105 120.683 190.387 120.966C190.669 121.248 190.891 121.584 191.043 121.954C191.194 122.323 191.271 122.718 191.269 123.117Z" fill="#59AEF8"/>
<path d="M337.944 553.914C339.644 553.914 341.022 552.537 341.022 550.837C341.022 549.138 339.644 547.76 337.944 547.76C336.243 547.76 334.865 549.138 334.865 550.837C334.865 552.537 336.243 553.914 337.944 553.914Z" fill="#59AEF8"/>
<path d="M411.974 428.713C413.162 428.713 414.124 427.751 414.124 426.564C414.124 425.377 413.162 424.415 411.974 424.415C410.787 424.415 409.824 425.377 409.824 426.564C409.824 427.751 410.787 428.713 411.974 428.713Z" fill="#59AEF8"/>
<path d="M145.255 -1.62806C145.255 -1.20301 145.129 -0.787503 144.893 -0.434086C144.657 -0.080668 144.321 0.194787 143.928 0.357447C143.535 0.520107 143.103 0.562673 142.686 0.479749C142.269 0.396825 141.885 0.192137 141.585 -0.10842C141.284 -0.408977 141.079 -0.791903 140.996 -1.20879C140.913 -1.62567 140.956 -2.05779 141.119 -2.45049C141.281 -2.84318 141.557 -3.17883 141.911 -3.41498C142.264 -3.65112 142.68 -3.77716 143.105 -3.77716C143.674 -3.7729 144.218 -3.54511 144.621 -3.143C145.023 -2.74088 145.251 -2.19672 145.255 -1.62806Z" fill="#59AEF8"/>
<path d="M316.2 111.135C317.387 111.135 318.35 110.172 318.35 108.985C318.35 107.799 317.387 106.836 316.2 106.836C315.012 106.836 314.05 107.799 314.05 108.985C314.05 110.172 315.012 111.135 316.2 111.135Z" fill="#59AEF8"/>
</g>
<path d="M93.9159 111.151C113.625 111.151 129.603 95.18 129.603 75.479C129.603 55.778 113.625 39.8072 93.9159 39.8072C74.2063 39.8072 58.2285 55.778 58.2285 75.479C58.2285 95.18 74.2063 111.151 93.9159 111.151Z" fill="#59AEF8"/>
<path opacity="0.7" d="M93.9159 111.151C113.625 111.151 129.603 95.18 129.603 75.479C129.603 55.778 113.625 39.8072 93.9159 39.8072C74.2063 39.8072 58.2285 55.778 58.2285 75.479C58.2285 95.18 74.2063 111.151 93.9159 111.151Z" fill="white"/>
<path opacity="0.2" d="M81.6169 48.5665C76.7567 48.5516 71.9451 49.5323 67.4788 51.4482C61.9896 57.4785 58.7316 65.2057 58.2468 73.3442C57.7619 81.4826 60.0794 89.5417 64.8138 96.1806C69.5481 102.819 76.4138 107.638 84.2687 109.834C92.1236 112.031 100.494 111.473 107.987 108.253C112.633 103.135 115.693 96.7791 116.794 89.9567C117.896 83.1344 116.992 76.1391 114.193 69.8203C111.393 63.5015 106.819 58.1311 101.024 54.3611C95.2301 50.5911 88.4654 48.5837 81.5518 48.5827L81.6169 48.5665Z" fill="#59AEF8"/>
<path opacity="0.2" d="M78.067 57.9932C78.067 58.6372 77.876 59.2667 77.518 59.8022C77.1601 60.3377 76.6513 60.755 76.056 61.0015C75.4608 61.2479 74.8058 61.3124 74.1739 61.1868C73.5419 61.0612 72.9615 60.751 72.5059 60.2956C72.0503 59.8402 71.74 59.26 71.6144 58.6284C71.4887 57.9968 71.5532 57.342 71.7997 56.747C72.0463 56.152 72.4638 55.6435 72.9995 55.2857C73.5353 54.9279 74.1651 54.7369 74.8094 54.7369C75.6734 54.7369 76.502 55.08 77.1129 55.6907C77.7238 56.3013 78.067 57.1295 78.067 57.9932Z" fill="#59AEF8"/>
<path opacity="0.2" d="M116.442 54.737C116.442 55.381 116.251 56.0106 115.893 56.546C115.535 57.0815 115.026 57.4989 114.431 57.7453C113.836 57.9918 113.181 58.0563 112.549 57.9306C111.917 57.805 111.336 57.4949 110.881 57.0395C110.425 56.5841 110.115 56.0039 109.989 55.3722C109.864 54.7406 109.928 54.0859 110.175 53.4909C110.421 52.8959 110.839 52.3873 111.375 52.0295C111.91 51.6717 112.54 51.4808 113.184 51.4808C114.048 51.4808 114.877 51.8238 115.488 52.4345C116.099 53.0452 116.442 53.8734 116.442 54.737Z" fill="#59AEF8"/>
<path opacity="0.2" d="M109.926 77.9863C109.926 79.0425 109.613 80.075 109.026 80.9531C108.439 81.8313 107.604 82.5158 106.628 82.92C105.652 83.3242 104.578 83.4299 103.541 83.2239C102.505 83.0178 101.553 82.5092 100.806 81.7624C100.059 81.0155 99.55 80.064 99.3439 79.0281C99.1377 77.9922 99.2435 76.9185 99.6479 75.9427C100.052 74.9669 100.737 74.1329 101.616 73.5461C102.494 72.9593 103.527 72.6461 104.584 72.6461C106.001 72.6461 107.36 73.2087 108.361 74.2102C109.363 75.2117 109.926 76.57 109.926 77.9863Z" fill="#59AEF8"/>
<path opacity="0.2" d="M92.954 93.2091C92.954 94.6195 92.5356 95.9982 91.7517 97.1709C90.9677 98.3436 89.8535 99.2576 88.5499 99.7974C87.2463 100.337 85.8119 100.478 84.428 100.203C83.044 99.928 81.7729 99.2488 80.7751 98.2515C79.7774 97.2542 79.0979 95.9836 78.8226 94.6003C78.5474 93.217 78.6886 91.7832 79.2286 90.4801C79.7686 89.1771 80.683 88.0634 81.8562 87.2798C83.0294 86.4962 84.4087 86.078 85.8198 86.078C87.7119 86.078 89.5265 86.8293 90.8644 88.1666C92.2024 89.504 92.954 91.3178 92.954 93.2091Z" fill="#59AEF8"/>
<path d="M516.869 505.765C520.843 488.936 510.416 472.074 493.58 468.102C476.744 464.13 459.874 474.552 455.9 491.381C451.926 508.21 462.354 525.072 479.19 529.044C496.026 533.016 512.896 522.594 516.869 505.765Z" fill="#59AEF8"/>
<path opacity="0.3" d="M516.869 505.765C520.843 488.936 510.416 472.074 493.58 468.102C476.744 464.13 459.874 474.552 455.9 491.381C451.926 508.21 462.354 525.072 479.19 529.044C496.026 533.016 512.896 522.594 516.869 505.765Z" fill="white"/>
<path opacity="0.4" d="M506.169 474.332C499.226 472.238 491.77 472.618 485.076 475.408C478.381 478.198 472.864 483.224 469.466 489.629C466.068 496.034 465 503.419 466.445 510.524C467.89 517.628 471.758 524.011 477.388 528.581C480.308 529.467 483.343 529.917 486.395 529.916C492.862 529.915 499.169 527.913 504.452 524.185C509.734 520.458 513.734 515.187 515.9 509.097C518.067 503.007 518.294 496.396 516.552 490.172C514.81 483.947 511.183 478.414 506.169 474.332Z" fill="#59AEF8"/>
<path d="M456.489 507.969C423.05 523.697 447.987 535.826 495.108 518.894C538.744 503.215 555.375 483.45 516.283 489.588C518.384 497.81 463.737 519.089 456.489 507.969Z" fill="#59AEF8"/>
<path opacity="0.2" d="M505.795 191.84C461.996 221.422 405.297 260.497 389.644 354.341H386.305C401.534 261.539 456.165 221.536 499.98 191.84H505.795Z" fill="black"/>
<path d="M279.226 485.615C251.536 485.615 224.156 473.128 210.816 452.744C202.59 440.142 193.029 413.751 221.501 378.535L224.025 380.586C203.893 405.496 200.18 430.487 213.552 450.969C229.84 475.879 268.264 488.415 301.069 479.493C334.671 470.36 355.064 441.152 357.035 399.358C363.762 256.394 439.746 212.354 495.224 180.199C529.706 160.222 554.61 145.797 549.137 115.335C548.372 111.118 546.694 108.204 543.974 106.413C536.889 101.74 523.044 104.98 507.016 108.709C475.564 116.035 432.498 126.064 406.844 82.4473L409.662 80.8192C434.094 122.385 474.114 113.056 506.283 105.566C523.044 101.675 537.508 98.305 545.766 103.727C549.268 106.022 551.418 109.653 552.281 114.798C558.161 147.49 531.106 163.185 496.82 183.048C441.977 214.829 366.889 258.348 360.243 399.586C358.191 442.894 336.919 473.193 301.867 482.717C294.482 484.683 286.868 485.657 279.226 485.615Z" fill="#59AEF8"/>
<path opacity="0.2" d="M279.226 485.615C251.536 485.615 224.156 473.128 210.816 452.744C202.59 440.142 193.029 413.751 221.501 378.535L224.025 380.586C203.893 405.496 200.18 430.487 213.552 450.969C229.84 475.879 268.264 488.415 301.069 479.493C334.671 470.36 355.064 441.152 357.035 399.358C363.762 256.394 439.746 212.354 495.224 180.199C529.706 160.222 554.61 145.797 549.137 115.335C548.372 111.118 546.694 108.204 543.974 106.413C536.889 101.74 523.044 104.98 507.016 108.709C475.564 116.035 432.498 126.064 406.844 82.4473L409.662 80.8192C434.094 122.385 474.114 113.056 506.283 105.566C523.044 101.675 537.508 98.305 545.766 103.727C549.268 106.022 551.418 109.653 552.281 114.798C558.161 147.49 531.106 163.185 496.82 183.048C441.977 214.829 366.889 258.348 360.243 399.586C358.191 442.894 336.919 473.193 301.867 482.717C294.482 484.683 286.868 485.657 279.226 485.615Z" fill="white"/>
<path d="M373.307 43.9588C380.812 44.0021 388.268 45.1711 395.426 47.4267C395.426 47.4267 413.343 77.9862 415.46 84.9871C414.711 91.8902 403.065 103.206 403.065 103.206L373.307 43.9588Z" fill="#59AEF8"/>
<path opacity="0.3" d="M373.307 43.9588C380.812 44.0021 388.268 45.1711 395.426 47.4267C395.426 47.4267 413.343 77.9862 415.46 84.9871C414.711 91.8902 403.065 103.206 403.065 103.206L373.307 43.9588Z" fill="white"/>
<path d="M426.374 192.328C419.474 183.895 413.182 174.983 407.545 165.66C406.176 163.304 404.879 160.906 403.652 158.464C402.951 157.08 402.284 155.696 401.632 154.296C400.777 152.933 400.114 151.459 399.661 149.916C397.707 129.288 404.776 114.098 398.032 97.5398L371.189 108.025C371.189 108.025 373.47 137.526 378.682 155.24C381.94 166.197 389.237 175.673 396.29 184.448C398.488 187.183 400.606 190 402.805 192.751C405.004 195.503 407.219 197.733 409.32 200.322C412.496 204.246 413.539 208.007 411.144 212.631L410.737 213.363C410.053 214.568 413.246 215.936 415.265 213.363C418.523 209.163 418.067 209.423 420.901 205.841C422.628 203.676 424.598 201.315 426.309 199.329C427.134 198.352 427.592 197.118 427.604 195.84C427.615 194.562 427.18 193.32 426.374 192.328Z" fill="#59AEF8"/>
<path opacity="0.7" d="M426.374 192.328C419.474 183.895 413.182 174.983 407.545 165.66C406.176 163.304 404.879 160.906 403.652 158.464C402.951 157.08 402.284 155.696 401.632 154.296C400.777 152.933 400.114 151.459 399.661 149.916C397.707 129.288 404.776 114.098 398.032 97.5398L371.189 108.025C371.189 108.025 373.47 137.526 378.682 155.24C381.94 166.197 389.237 175.673 396.29 184.448C398.488 187.183 400.606 190 402.805 192.751C405.004 195.503 407.219 197.733 409.32 200.322C412.496 204.246 413.539 208.007 411.144 212.631L410.737 213.363C410.053 214.568 413.246 215.936 415.265 213.363C418.523 209.163 418.067 209.423 420.901 205.841C422.628 203.676 424.598 201.315 426.309 199.329C427.134 198.352 427.592 197.118 427.604 195.84C427.615 194.562 427.18 193.32 426.374 192.328Z" fill="white"/>
<path opacity="0.3" d="M419.81 183.846C415.55 188.41 410.822 192.513 405.704 196.089C406.404 196.871 407.089 197.717 407.789 198.466C412.913 195.006 417.567 190.896 421.634 186.239L419.81 183.846Z" fill="#59AEF8"/>
<path opacity="0.3" d="M426.374 192.328L426.179 192.1C424.925 193.537 424.196 195.357 424.11 197.261C424.005 198.568 424.218 199.88 424.729 201.087L426.276 199.248C427.085 198.281 427.536 197.065 427.554 195.805C427.572 194.545 427.155 193.317 426.374 192.328Z" fill="#59AEF8"/>
<path d="M366.922 63.4961C364.012 67.8514 360.521 71.7897 356.546 75.2021C354.342 77.1011 351.926 78.74 349.347 80.0865C347.992 80.7805 346.587 81.3737 345.145 81.8611L344.037 82.2193L343.679 82.317L342.913 82.5286C342.442 82.6404 341.963 82.7166 341.48 82.7565C340.106 82.8616 338.724 82.735 337.391 82.3821C335.712 81.9055 334.101 81.2103 332.603 80.3144C331.397 79.6097 330.228 78.8435 329.101 78.0188C327.064 76.5047 325.117 74.8738 323.27 73.1344C319.707 69.7601 316.437 66.0891 313.497 62.161C312.93 61.3958 312.649 60.457 312.701 59.5066C312.754 58.5562 313.136 57.6539 313.783 56.9553C314.43 56.2567 315.3 55.8057 316.244 55.6801C317.188 55.5545 318.146 55.7621 318.953 56.2673H319.084C322.928 58.7094 326.804 61.2818 330.583 63.5775C332.505 64.7009 334.362 65.8405 336.202 66.7197C337.043 67.1594 337.907 67.5508 338.792 67.8919C339.344 68.1352 339.934 68.2785 340.535 68.3152C340.633 68.3152 340.535 68.2013 339.932 68.2176C339.743 68.2062 339.552 68.2062 339.362 68.2176L339.004 68.299L339.542 68.0222C340.265 67.633 340.967 67.2035 341.643 66.736C343.1 65.7088 344.463 64.5537 345.715 63.2844C348.56 60.3036 351.225 57.1558 353.696 53.8577C355.05 52.344 356.92 51.3905 358.941 51.1842C360.961 50.978 362.986 51.5339 364.618 52.7428C366.249 53.9518 367.37 55.7266 367.76 57.719C368.151 59.7115 367.782 61.7777 366.726 63.5123L366.922 63.4961Z" fill="#59AEF8"/>
<path opacity="0.7" d="M366.922 63.4961C364.012 67.8514 360.521 71.7897 356.546 75.2021C354.342 77.1011 351.926 78.74 349.347 80.0865C347.992 80.7805 346.587 81.3737 345.145 81.8611L344.037 82.2193L343.679 82.317L342.913 82.5286C342.442 82.6404 341.963 82.7166 341.48 82.7565C340.106 82.8616 338.724 82.735 337.391 82.3821C335.712 81.9055 334.101 81.2103 332.603 80.3144C331.397 79.6097 330.228 78.8435 329.101 78.0188C327.064 76.5047 325.117 74.8738 323.27 73.1344C319.707 69.7601 316.437 66.0891 313.497 62.161C312.93 61.3958 312.649 60.457 312.701 59.5066C312.754 58.5562 313.136 57.6539 313.783 56.9553C314.43 56.2567 315.3 55.8057 316.244 55.6801C317.188 55.5545 318.146 55.7621 318.953 56.2673H319.084C322.928 58.7094 326.804 61.2818 330.583 63.5775C332.505 64.7009 334.362 65.8405 336.202 66.7197C337.043 67.1594 337.907 67.5508 338.792 67.8919C339.344 68.1352 339.934 68.2785 340.535 68.3152C340.633 68.3152 340.535 68.2013 339.932 68.2176C339.743 68.2062 339.552 68.2062 339.362 68.2176L339.004 68.299L339.542 68.0222C340.265 67.633 340.967 67.2035 341.643 66.736C343.1 65.7088 344.463 64.5537 345.715 63.2844C348.56 60.3036 351.225 57.1558 353.696 53.8577C355.05 52.344 356.92 51.3905 358.941 51.1842C360.961 50.978 362.986 51.5339 364.618 52.7428C366.249 53.9518 367.37 55.7266 367.76 57.719C368.151 59.7115 367.782 61.7777 366.726 63.5123L366.922 63.4961Z" fill="white"/>
<path d="M307.388 52.7831L309.294 56.0393C309.294 56.0393 310.744 60.305 313.659 61.0865L321.575 58.5303L321.168 57.8628C320.158 56.3324 320.272 53.353 320.614 50.8782C320.956 48.4035 319.686 48.3221 318.741 48.9408C318.072 49.7106 317.602 50.6331 317.373 51.6272C316.985 51.0895 316.554 50.5833 316.086 50.113L313.676 47.7034C313.17 47.2094 312.496 46.9247 311.789 46.9066C311.082 46.8884 310.395 47.1382 309.864 47.6058L307.91 49.3478C307.446 49.7765 307.142 50.35 307.047 50.9742C306.952 51.5984 307.073 52.2363 307.388 52.7831Z" fill="#59AEF8"/>
<path opacity="0.7" d="M307.388 52.7831L309.294 56.0393C309.294 56.0393 310.744 60.305 313.659 61.0865L321.575 58.5303L321.168 57.8628C320.158 56.3324 320.272 53.353 320.614 50.8782C320.956 48.4035 319.686 48.3221 318.741 48.9408C318.072 49.7106 317.602 50.6331 317.373 51.6272C316.985 51.0895 316.554 50.5833 316.086 50.113L313.676 47.7034C313.17 47.2094 312.496 46.9247 311.789 46.9066C311.082 46.8884 310.395 47.1382 309.864 47.6058L307.91 49.3478C307.446 49.7765 307.142 50.35 307.047 50.9742C306.952 51.5984 307.073 52.2363 307.388 52.7831Z" fill="white"/>
<path d="M381.304 41.0608C372.524 43.3871 364.113 46.9329 356.318 51.5946C355.102 52.3554 354.148 53.4695 353.583 54.7877C353.018 56.1059 352.87 57.5652 353.158 58.9699C356.302 74.3393 363.452 94.9185 371.173 108.025L407.186 93.1276C407.43 86.778 398.684 66.2313 389.774 46.3684C388.178 42.8029 385.099 40.149 381.304 41.0608Z" fill="#59AEF8"/>
<path opacity="0.8" d="M381.304 41.0608C372.524 43.3871 364.113 46.9329 356.318 51.5946C355.102 52.3554 354.148 53.4695 353.583 54.7877C353.018 56.1059 352.87 57.5652 353.158 58.9699C356.302 74.3393 363.452 94.9185 371.173 108.025L407.186 93.1276C407.43 86.778 398.684 66.2313 389.774 46.3684C388.178 42.8029 385.099 40.149 381.304 41.0608Z" fill="white"/>
<path opacity="0.3" d="M395.36 58.9537L388.21 56.5604C389.839 60.7446 395.589 66.0359 399.612 69.1456C398.309 65.8894 396.859 62.4704 395.36 58.9537Z" fill="#59AEF8"/>
<path d="M378.943 24.9425C375.962 19.2767 369.528 16.4276 361.808 17.0625C355.293 17.6161 349.526 24.2587 350.211 27.8406C350.895 31.4224 356.368 32.9528 357.41 34.1902L352.898 37.4464C352.364 37.832 351.913 38.3217 351.573 38.8861C351.232 39.4504 351.01 40.0778 350.919 40.7303C350.827 41.3828 350.869 42.047 351.041 42.683C351.214 43.319 351.513 43.9136 351.921 44.431C353.827 46.8406 356.335 49.3153 357.785 51.1388C370.261 50.8132 379.497 46.0591 382.836 41.4841C381.582 35.6881 381.842 30.5758 378.943 24.9425Z" fill="#59AEF8"/>
<path opacity="0.8" d="M378.943 24.9425C375.962 19.2767 369.528 16.4276 361.808 17.0625C355.293 17.6161 349.526 24.2587 350.211 27.8406C350.895 31.4224 356.368 32.9528 357.41 34.1902L352.898 37.4464C352.364 37.832 351.913 38.3217 351.573 38.8861C351.232 39.4504 351.01 40.0778 350.919 40.7303C350.827 41.3828 350.869 42.047 351.041 42.683C351.214 43.319 351.513 43.9136 351.921 44.431C353.827 46.8406 356.335 49.3153 357.785 51.1388C370.261 50.8132 379.497 46.0591 382.836 41.4841C381.582 35.6881 381.842 30.5758 378.943 24.9425Z" fill="white"/>
<path d="M372.818 28.4593C373.704 30.7298 373.896 33.2119 373.371 35.5918C372.846 37.9716 371.626 40.1424 369.867 41.8297C368.108 43.517 365.887 44.6451 363.487 45.0714C361.086 45.4976 358.613 45.203 356.38 44.2246C354.147 43.2462 352.254 41.628 350.941 39.5747C349.628 37.5213 348.953 35.1248 349.003 32.6882C349.052 30.2517 349.822 27.8843 351.217 25.8855C352.612 23.8867 354.569 22.3461 356.839 21.4584C359.887 20.2716 363.282 20.3422 366.277 21.6548C369.273 22.9674 371.626 25.4146 372.818 28.4593Z" fill="#263238"/>
<path d="M478.577 175.184C478.398 169.828 478.154 170.3 478.007 165.79C477.909 163.022 477.893 159.945 477.877 157.291C477.871 156.031 477.431 154.811 476.629 153.838C475.828 152.865 474.715 152.199 473.479 151.951C471.329 151.512 469.163 151.104 466.964 150.649C464.146 150.046 461.361 149.395 458.608 148.597C456.458 147.979 454.34 147.295 452.239 146.53C450.138 145.764 447.776 144.901 445.594 143.892C443.02 142.801 440.479 141.629 437.971 140.408C435.153 139.073 432.368 137.673 429.582 136.256C418.865 118.526 418.637 106.836 407.137 93.1276L382.444 104.296C382.444 104.296 400.589 136.468 412.936 150.111C420.054 157.959 431.211 161.508 441.163 164.08C448.346 165.92 455.627 167.337 462.908 168.688C465.742 169.209 468.821 169.404 471.264 171.098C473.071 172.483 474.311 174.48 474.749 176.715C474.858 177.17 474.956 177.626 475.043 178.082C475.352 179.45 478.691 178.408 478.577 175.184Z" fill="#59AEF8"/>
<path opacity="0.8" d="M478.577 175.184C478.398 169.828 478.154 170.3 478.007 165.79C477.909 163.022 477.893 159.945 477.877 157.291C477.871 156.031 477.431 154.811 476.629 153.838C475.828 152.865 474.715 152.199 473.479 151.951C471.329 151.512 469.163 151.104 466.964 150.649C464.146 150.046 461.361 149.395 458.608 148.597C456.458 147.979 454.34 147.295 452.239 146.53C450.138 145.764 447.776 144.901 445.594 143.892C443.02 142.801 440.479 141.629 437.971 140.408C435.153 139.073 432.368 137.673 429.582 136.256C418.865 118.526 418.637 106.836 407.137 93.1276L382.444 104.296C382.444 104.296 400.589 136.468 412.936 150.111C420.054 157.959 431.211 161.508 441.163 164.08C448.346 165.92 455.627 167.337 462.908 168.688C465.742 169.209 468.821 169.404 471.264 171.098C473.071 172.483 474.311 174.48 474.749 176.715C474.858 177.17 474.956 177.626 475.043 178.082C475.352 179.45 478.691 178.408 478.577 175.184Z" fill="white"/>
<path opacity="0.3" d="M466.052 150.437C465.075 150.225 464.098 150.014 463.104 149.769C463.186 155.403 460.547 165.106 459.586 168.053L462.681 168.639C464.709 162.774 465.845 156.639 466.052 150.437Z" fill="#59AEF8"/>
<path opacity="0.3" d="M477.942 157.291C477.937 156.033 477.499 154.815 476.701 153.843C475.903 152.87 474.794 152.202 473.56 151.951L471.932 151.642C472.193 153.493 473.141 155.178 474.587 156.363C475.516 157.222 476.631 157.857 477.844 158.219C477.942 157.926 477.942 157.601 477.942 157.291Z" fill="#59AEF8"/>
<path d="M370.522 28.557C371.173 31.0317 368.404 33.6204 366.205 31.4875C364.153 29.288 361.907 27.2774 359.494 25.4798C357.23 24.0634 360.244 21.5887 363.811 22.5492C365.333 22.9315 366.739 23.6781 367.908 24.7248C369.077 25.7714 369.974 27.0866 370.522 28.557Z" fill="white"/>
<path d="M370.7 107.227C369.56 107.65 371.645 109.604 371.645 109.604C371.645 109.604 394.448 101.805 408.293 93.7788C408.327 93.2929 408.244 92.806 408.051 92.3586C407.859 91.9112 407.562 91.5162 407.186 91.2064C395.337 97.2313 383.155 102.58 370.7 107.227Z" fill="#59AEF8"/>
<path opacity="0.5" d="M370.7 107.227C369.56 107.65 371.645 109.604 371.645 109.604C371.645 109.604 394.448 101.805 408.293 93.7788C408.327 93.2929 408.244 92.806 408.051 92.3586C407.859 91.9112 407.562 91.5162 407.186 91.2064C395.337 97.2313 383.155 102.58 370.7 107.227Z" fill="white"/>
<path d="M387.478 39.9862C391.973 42.2656 396.192 44.6589 400.508 47.3127C402.61 48.6478 404.694 49.9991 406.763 51.4644C408.832 52.9297 410.884 54.4275 412.953 56.1208L413.718 56.7557L414.679 57.6349C415.252 58.147 415.796 58.6906 416.308 59.263C416.829 59.8328 417.269 60.3864 417.692 60.8911C418.116 61.3958 418.572 61.9982 418.947 62.5192C420.464 64.6123 421.867 66.7863 423.149 69.0316C425.673 73.3858 427.852 77.9313 429.664 82.6263C429.999 83.5134 430.017 84.4891 429.713 85.3875C429.41 86.2859 428.805 87.0515 428 87.5542C427.196 88.0569 426.242 88.2656 425.302 88.1449C424.361 88.0242 423.491 87.5814 422.84 86.892L422.758 86.7943C419.5 83.3264 416.357 79.6795 413.197 76.2767C410.037 72.874 406.828 69.4224 404.173 67.9082C400.476 65.6126 396.355 63.317 392.267 61.0702L379.953 54.2322C378.043 53.2217 376.614 51.4945 375.978 49.4305C375.343 47.3665 375.554 45.1347 376.565 43.2262C377.576 41.3176 379.304 39.8886 381.369 39.2535C383.434 38.6184 385.666 38.8293 387.576 39.8397L387.478 39.9862Z" fill="#59AEF8"/>
<path opacity="0.8" d="M387.478 39.9862C391.973 42.2656 396.192 44.6589 400.508 47.3127C402.61 48.6478 404.694 49.9991 406.763 51.4644C408.832 52.9297 410.884 54.4275 412.953 56.1208L413.718 56.7557L414.679 57.6349C415.252 58.147 415.796 58.6906 416.308 59.263C416.829 59.8328 417.269 60.3864 417.692 60.8911C418.116 61.3958 418.572 61.9982 418.947 62.5192C420.464 64.6123 421.867 66.7863 423.149 69.0316C425.673 73.3858 427.852 77.9313 429.664 82.6263C429.999 83.5134 430.017 84.4891 429.713 85.3875C429.41 86.2859 428.805 87.0515 428 87.5542C427.196 88.0569 426.242 88.2656 425.302 88.1449C424.361 88.0242 423.491 87.5814 422.84 86.892L422.758 86.7943C419.5 83.3264 416.357 79.6795 413.197 76.2767C410.037 72.874 406.828 69.4224 404.173 67.9082C400.476 65.6126 396.355 63.317 392.267 61.0702L379.953 54.2322C378.043 53.2217 376.614 51.4945 375.978 49.4305C375.343 47.3665 375.554 45.1347 376.565 43.2262C377.576 41.3176 379.304 39.8886 381.369 39.2535C383.434 38.6184 385.666 38.8293 387.576 39.8397L387.478 39.9862Z" fill="white"/>
<path d="M433.523 90.7506L432.139 87.2828C432.139 87.2828 431.373 82.8543 428.621 81.6169L420.477 82.9031L420.753 83.6195C421.503 85.2476 420.933 88.2271 420.2 90.6041C419.467 92.9811 420.705 93.2905 421.747 92.8183C422.333 92.5578 422.903 91.4996 423.522 90.3762C423.826 90.9421 424.169 91.4861 424.549 92.0043L426.552 94.7558C426.971 95.3259 427.589 95.7167 428.284 95.8496C428.979 95.9825 429.699 95.8476 430.298 95.4721L432.513 94.0557C433.032 93.701 433.414 93.1806 433.598 92.58C433.781 91.9794 433.755 91.3343 433.523 90.7506Z" fill="#59AEF8"/>
<path opacity="0.8" d="M433.523 90.7506L432.139 87.2828C432.139 87.2828 431.373 82.8543 428.621 81.6169L420.477 82.9031L420.753 83.6195C421.503 85.2476 420.933 88.2271 420.2 90.6041C419.467 92.9811 420.705 93.2905 421.747 92.8183C422.333 92.5578 422.903 91.4996 423.522 90.3762C423.826 90.9421 424.169 91.4861 424.549 92.0043L426.552 94.7558C426.971 95.3259 427.589 95.7167 428.284 95.8496C428.979 95.9825 429.699 95.8476 430.298 95.4721L432.513 94.0557C433.032 93.701 433.414 93.1806 433.598 92.58C433.781 91.9794 433.755 91.3343 433.523 90.7506Z" fill="white"/>
<path opacity="0.3" d="M380.604 58.7095L378.617 58.8723L366.417 88.3084C367.084 88.3564 367.754 88.3015 368.404 88.1456C368.404 88.1456 384.301 82.2193 389.106 80.0051C385.881 73.3461 380.604 58.7095 380.604 58.7095Z" fill="#59AEF8"/>
<path d="M358.338 66.4267C359.82 74.1214 362.572 81.5162 366.482 88.3084C372.443 86.257 382.379 82.3821 387.201 80.1679C383.96 73.2239 381.084 66.1157 378.584 58.8723C373.486 59.2142 362.296 63.4961 358.338 66.4267Z" fill="white"/>
<path opacity="0.3" d="M370.44 72.7926C370.201 73.5887 369.732 74.2964 369.092 74.8261C368.451 75.3558 367.668 75.6836 366.841 75.7682C366.014 75.8527 365.18 75.6901 364.446 75.301C363.711 74.9119 363.108 74.3138 362.714 73.5823C362.32 72.8507 362.151 72.0187 362.23 71.1915C362.309 70.3642 362.631 69.5789 363.156 68.9349C363.682 68.2909 364.387 67.8171 365.181 67.5735C365.976 67.3299 366.825 67.3274 367.622 67.5663C368.688 67.8864 369.584 68.6167 370.113 69.5966C370.641 70.5765 370.759 71.726 370.44 72.7926Z" fill="#59AEF8"/>
<path opacity="0.6" d="M373.55 67.1918C373.487 67.4636 373.342 67.7098 373.136 67.8982C372.93 68.0866 372.672 68.2083 372.396 68.2474C372.119 68.2865 371.838 68.2412 371.587 68.1173C371.337 67.9934 371.13 67.7968 370.994 67.5533C370.858 67.3099 370.798 67.0308 370.823 66.7529C370.848 66.4749 370.957 66.2111 371.134 65.9959C371.312 65.7807 371.551 65.6243 371.819 65.5472C372.088 65.4701 372.373 65.4758 372.638 65.5637C372.968 65.6692 373.246 65.896 373.415 66.1981C373.584 66.5003 373.633 66.8554 373.55 67.1918Z" fill="#59AEF8"/>
<path opacity="0.6" d="M377.199 65.7754C377.161 65.9643 377.084 66.1431 376.973 66.3004C376.861 66.4577 376.718 66.59 376.553 66.6889C376.387 66.7877 376.203 66.851 376.012 66.8745C375.82 66.8981 375.626 66.8814 375.442 66.8256C375.257 66.7698 375.086 66.6761 374.94 66.5505C374.794 66.4249 374.676 66.2702 374.593 66.0962C374.51 65.9223 374.464 65.7329 374.459 65.5403C374.453 65.3477 374.488 65.1561 374.561 64.9777C374.613 64.8054 374.699 64.6451 374.813 64.5059C374.927 64.3668 375.068 64.2516 375.227 64.1669C375.385 64.0822 375.559 64.0297 375.739 64.0123C375.918 63.995 376.099 64.0132 376.271 64.0659C376.62 64.1715 376.913 64.4101 377.086 64.7301C377.26 65.0501 377.301 65.4257 377.199 65.7754Z" fill="#59AEF8"/>
<path opacity="0.5" d="M382.314 78.4584L367.247 84.401L366.352 81.4378L381.402 75.4952L382.314 78.4584Z" fill="#59AEF8"/>
<path opacity="0.2" d="M299.194 304.733C299.16 314.213 298.243 323.669 296.458 332.98C294.536 341.349 291.55 347.47 287.499 351.345C285.613 353.217 283.373 354.695 280.909 355.693C278.445 356.691 275.808 357.189 273.15 357.158C264.777 357.158 258.387 352.593 253.978 343.465C253.204 341.826 252.545 340.134 252.008 338.402C242.697 346.395 234.027 355.105 226.077 364.451L217.428 374.643C222.082 379.359 227.453 383.31 233.341 386.349C243.483 391.592 256.796 394.219 273.28 394.23C276.179 394.23 278.981 394.148 281.701 393.985C291.673 379.236 299.925 363.394 306.296 346.77L330.484 283.73L299.194 304.733Z" fill="black"/>
<path d="M81.1455 390.745L109.65 419.237L189.462 344.068C161.951 333.566 108.461 363.377 81.1455 390.745Z" fill="#263238"/>
<path d="M180.552 490.06C171.447 480.942 152.048 461.568 152.048 461.568L227.25 381.791C237.691 409.224 207.867 462.74 180.552 490.06Z" fill="#263238"/>
<path d="M289.651 310.48L320.745 250.549L260.788 281.662C241.53 291.646 223.748 304.248 207.949 319.109L105.741 415.281L155.958 465.475L252.172 363.312C267.046 347.516 279.659 329.736 289.651 310.48Z" fill="#59AEF8"/>
<path opacity="0.6" d="M289.651 310.48L320.745 250.549L260.788 281.662C241.53 291.646 223.748 304.248 207.949 319.109L105.741 415.281L155.958 465.475L252.172 363.312C267.046 347.516 279.659 329.736 289.651 310.48Z" fill="white"/>
<path d="M225.801 366.454C237.405 366.454 246.813 357.051 246.813 345.451C246.813 333.852 237.405 324.449 225.801 324.449C214.196 324.449 204.789 333.852 204.789 345.451C204.789 357.051 214.196 366.454 225.801 366.454Z" fill="white"/>
<path d="M225.802 358.949C233.259 358.949 239.305 352.906 239.305 345.451C239.305 337.997 233.259 331.955 225.802 331.955C218.344 331.955 212.299 337.997 212.299 345.451C212.299 352.906 218.344 358.949 225.802 358.949Z" fill="#59AEF8"/>
<path opacity="0.3" d="M172.945 447.436L123.771 398.284L164.036 360.414L210.832 407.206L172.945 447.436Z" fill="#59AEF8"/>
<path d="M92.2704 435.714C55.4591 438.693 43.2593 462.252 39.0895 493.56C36.972 509.532 36.0273 525.699 22.6222 535.044C21.8157 535.592 21.2085 536.387 20.8916 537.308C20.5746 538.23 20.5648 539.229 20.8638 540.157C21.1628 541.085 21.7544 541.891 22.55 542.454C23.3456 543.018 24.3024 543.308 25.2771 543.283C74.6954 541.736 97.7432 517.559 100.643 507.464C99.8815 512.741 98.5208 517.914 96.5867 522.882C96.2312 523.759 96.1616 524.726 96.3878 525.644C96.614 526.563 97.1245 527.387 97.8465 527.998C98.5686 528.61 99.4653 528.978 100.409 529.051C101.353 529.123 102.295 528.896 103.102 528.402C116.963 519.724 134.359 503.736 135.515 477.8C125.319 463.359 92.2704 435.714 92.2704 435.714Z" fill="#59AEF8"/>
<path opacity="0.2" d="M92.2704 435.714C55.4591 438.693 43.2593 462.252 39.0895 493.56C36.972 509.532 36.0273 525.699 22.6222 535.044C21.8157 535.592 21.2085 536.387 20.8916 537.308C20.5746 538.23 20.5648 539.229 20.8638 540.157C21.1628 541.085 21.7544 541.891 22.55 542.454C23.3456 543.018 24.3024 543.308 25.2771 543.283C74.6954 541.736 97.7432 517.559 100.643 507.464C99.8815 512.741 98.5208 517.914 96.5867 522.882C96.2312 523.759 96.1616 524.726 96.3878 525.644C96.614 526.563 97.1245 527.387 97.8465 527.998C98.5686 528.61 99.4653 528.978 100.409 529.051C101.353 529.123 102.295 528.896 103.102 528.402C116.963 519.724 134.359 503.736 135.515 477.8C125.319 463.359 92.2704 435.714 92.2704 435.714Z" fill="white"/>
<path d="M141.233 488.92L82.2695 429.983L113.673 423.194L148.025 457.53L141.233 488.92Z" fill="#59AEF8"/>
</g>
<defs>
<clipPath id="clip0_1263_2354">
<rect width="541" height="571" fill="white"/>
</clipPath>
</defs>
</svg>
